STARTFONT 2.1
FONT --Shaston-Regular-R-Normal--16-160-72-72-P-150-APPLE-ROMAN
SIZE 16 72 72
FONTBOUNDINGBOX 23 16 -1 -2
METRICSSET 2
STARTPROPERTIES 17
PIXEL_SIZE 16
RESOLUTION_X 72
RESOLUTION_Y 72
POINT_SIZE 160
FACE_NAME "Shaston 16"
FOUNDRY ""
FAMILY_NAME "Shaston"
WEIGHT_NAME "Regular"
RELATIVE_WEIGHT 50
SLANT "R"
SPACING "P"
SETWIDTH_NAME "Normal"
RELATIVE_SETWIDTH 50
ADD_STYLE_NAME ""
AVERAGE_WIDTH 150
CHARSET_REGISTRY "APPLE"
CHARSET_ENCODING "ROMAN"
ENDPROPERTIES
CHARS 198
STARTCHAR char09
ENCODING 9
SWIDTH 500 0
DWIDTH 8 0
BBX 0 0 8 14
VVECTOR 13 14
SWIDTH1 0 -1000
DWIDTH1 0 -16
BITMAP 
ENDCHAR
STARTCHAR char0D
ENCODING 13
SWIDTH 500 0
DWIDTH 8 0
BBX 0 0 8 14
VVECTOR 13 14
SWIDTH1 0 -1000
DWIDTH1 0 -16
BITMAP 
ENDCHAR
STARTCHAR uni2318
ENCODING 17
SWIDTH 875 0
DWIDTH 14 0
BBX 15 14 -1 0
VVECTOR 7 14
SWIDTH1 0 -1000
DWIDTH1 0 -16
BITMAP 
00E0
01C0
0100
0000
3C78
66CC
C386
C018
C030
C030
C018
6006
33CC
0E70
ENDCHAR
STARTCHAR uni2713
ENCODING 18
SWIDTH 1000 0
DWIDTH 16 0
BBX 14 10 0 0
VVECTOR 7 14
SWIDTH1 0 -1000
DWIDTH1 0 -16
BITMAP 
000C
001C
0038
0070
C0E0
E1C0
7380
3F00
1E00
0C00
ENDCHAR
STARTCHAR uni25C6
ENCODING 19
SWIDTH 1000 0
DWIDTH 16 0
BBX 13 13 1 0
VVECTOR 8 14
SWIDTH1 0 -1000
DWIDTH1 0 -16
BITMAP 
0200
0700
0F80
1FC0
3FE0
7FF0
FFF8
7FF0
3FE0
1FC0
0F80
0700
0200
ENDCHAR
STARTCHAR uniF8FF
ENCODING 20
SWIDTH 1125 0
DWIDTH 18 0
BBX 14 14 2 0
VVECTOR 10 14
SWIDTH1 0 -1000
DWIDTH1 0 -16
BITMAP 
01C0
0380
0200
0000
38F0
7DF8
FFFC
FFF0
FFE0
FFE0
FFF0
FFFC
7FF8
38F0
ENDCHAR
STARTCHAR space
ENCODING 32
SWIDTH 500 0
DWIDTH 8 0
BBX 0 0 8 14
VVECTOR 13 14
SWIDTH1 0 -1000
DWIDTH1 0 -16
BITMAP 
ENDCHAR
STARTCHAR exclam
ENCODING 33
SWIDTH 750 0
DWIDTH 12 0
BBX 3 14 4 0
VVECTOR 6 14
SWIDTH1 0 -1000
DWIDTH1 0 -16
BITMAP 
E0
E0
E0
E0
E0
E0
E0
E0
E0
E0
00
00
E0
E0
ENDCHAR
STARTCHAR quotedbl
ENCODING 34
SWIDTH 1000 0
DWIDTH 16 0
BBX 10 6 3 8
VVECTOR 9 14
SWIDTH1 0 -1000
DWIDTH1 0 -16
BITMAP 
E1C0
E1C0
E1C0
E1C0
E1C0
E1C0
ENDCHAR
STARTCHAR numbersign
ENCODING 35
SWIDTH 1000 0
DWIDTH 16 0
BBX 13 12 2 2
VVECTOR 10 14
SWIDTH1 0 -1000
DWIDTH1 0 -16
BITMAP 
38E0
38E0
FFF8
FFF8
38E0
38E0
38E0
38E0
FFF8
FFF8
38E0
38E0
ENDCHAR
STARTCHAR dollar
ENCODING 36
SWIDTH 1000 0
DWIDTH 16 0
BBX 12 16 2 -2
VVECTOR 9 14
SWIDTH1 0 -1000
DWIDTH1 0 -16
BITMAP 
0600
0600
3FC0
7FE0
E670
E630
E600
7FC0
3FE0
0670
C670
E670
7FE0
3FC0
0600
0600
ENDCHAR
STARTCHAR percent
ENCODING 37
SWIDTH 1000 0
DWIDTH 16 0
BBX 14 14 1 0
VVECTOR 9 14
SWIDTH1 0 -1000
DWIDTH1 0 -16
BITMAP 
3C00
6608
E710
E720
6640
3C80
0100
0200
04F0
0998
139C
239C
4198
00F0
ENDCHAR
STARTCHAR ampersand
ENCODING 38
SWIDTH 1125 0
DWIDTH 18 0
BBX 14 14 2 0
VVECTOR 10 14
SWIDTH1 0 -1000
DWIDTH1 0 -16
BITMAP 
0E00
3F00
7180
7180
3B00
1E00
1E00
3F18
73B8
E1F0
E0E0
E1F0
7FB8
3F1C
ENDCHAR
STARTCHAR quotesingle
ENCODING 39
SWIDTH 750 0
DWIDTH 12 0
BBX 3 6 4 8
VVECTOR 6 14
SWIDTH1 0 -1000
DWIDTH1 0 -16
BITMAP 
E0
E0
E0
E0
E0
E0
ENDCHAR
STARTCHAR parenleft
ENCODING 40
SWIDTH 875 0
DWIDTH 14 0
BBX 10 16 2 -2
VVECTOR 8 14
SWIDTH1 0 -1000
DWIDTH1 0 -16
BITMAP 
07C0
1FC0
3C00
7000
E000
E000
E000
E000
E000
E000
E000
E000
7000
3C00
1FC0
07C0
ENDCHAR
STARTCHAR parenright
ENCODING 41
SWIDTH 875 0
DWIDTH 14 0
BBX 10 16 2 -2
VVECTOR 8 14
SWIDTH1 0 -1000
DWIDTH1 0 -16
BITMAP 
F800
FE00
0F00
0380
01C0
01C0
01C0
01C0
01C0
01C0
01C0
01C0
0380
0F00
FE00
F800
ENDCHAR
STARTCHAR asterisk
ENCODING 42
SWIDTH 875 0
DWIDTH 14 0
BBX 11 10 1 2
VVECTOR 7 14
SWIDTH1 0 -1000
DWIDTH1 0 -16
BITMAP 
60C0
3180
1B00
0E00
FFE0
FFE0
0E00
1B00
3180
60C0
ENDCHAR
STARTCHAR plus
ENCODING 43
SWIDTH 1000 0
DWIDTH 16 0
BBX 13 10 2 2
VVECTOR 10 14
SWIDTH1 0 -1000
DWIDTH1 0 -16
BITMAP 
0700
0700
0700
0700
FFF8
FFF8
0700
0700
0700
0700
ENDCHAR
STARTCHAR comma
ENCODING 44
SWIDTH 625 0
DWIDTH 10 0
BBX 4 4 3 -2
VVECTOR 6 14
SWIDTH1 0 -1000
DWIDTH1 0 -16
BITMAP 
70
70
E0
E0
ENDCHAR
STARTCHAR hyphen
ENCODING 45
SWIDTH 1000 0
DWIDTH 16 0
BBX 12 2 2 6
VVECTOR 9 14
SWIDTH1 0 -1000
DWIDTH1 0 -16
BITMAP 
FFF0
FFF0
ENDCHAR
STARTCHAR period
ENCODING 46
SWIDTH 500 0
DWIDTH 8 0
BBX 3 2 2 0
VVECTOR 4 14
SWIDTH1 0 -1000
DWIDTH1 0 -16
BITMAP 
E0
E0
ENDCHAR
STARTCHAR slash
ENCODING 47
SWIDTH 1000 0
DWIDTH 16 0
BBX 15 14 0 0
VVECTOR 8 14
SWIDTH1 0 -1000
DWIDTH1 0 -16
BITMAP 
000E
001E
003C
0078
00F0
01E0
03C0
0780
0F00
1E00
3C00
7800
F000
E000
ENDCHAR
STARTCHAR zero
ENCODING 48
SWIDTH 1000 0
DWIDTH 16 0
BBX 12 14 2 0
VVECTOR 9 14
SWIDTH1 0 -1000
DWIDTH1 0 -16
BITMAP 
1FF0
3FF0
7070
E070
E070
E070
E070
E070
E070
E070
E070
E0E0
FFC0
FF80
ENDCHAR
STARTCHAR one
ENCODING 49
SWIDTH 1000 0
DWIDTH 16 0
BBX 11 14 3 0
VVECTOR 10 14
SWIDTH1 0 -1000
DWIDTH1 0 -16
BITMAP 
0600
0E00
FE00
FE00
0E00
0E00
0E00
0E00
0E00
0E00
0E00
0E00
FFE0
FFE0
ENDCHAR
STARTCHAR two
ENCODING 50
SWIDTH 1000 0
DWIDTH 16 0
BBX 12 14 2 0
VVECTOR 9 14
SWIDTH1 0 -1000
DWIDTH1 0 -16
BITMAP 
1F80
7FE0
F0F0
E070
E0F0
01E0
03C0
0780
0F00
1E00
3C00
7800
FFF0
FFF0
ENDCHAR
STARTCHAR three
ENCODING 51
SWIDTH 1000 0
DWIDTH 16 0
BBX 12 14 2 0
VVECTOR 9 14
SWIDTH1 0 -1000
DWIDTH1 0 -16
BITMAP 
1F80
7FE0
F0F0
E070
0070
00E0
07C0
07C0
00E0
0070
E070
F0F0
7FE0
1F80
ENDCHAR
STARTCHAR four
ENCODING 52
SWIDTH 1000 0
DWIDTH 16 0
BBX 12 14 2 0
VVECTOR 9 14
SWIDTH1 0 -1000
DWIDTH1 0 -16
BITMAP 
E000
E1C0
E1C0
E1C0
E1C0
E1C0
E1C0
E1C0
FFF0
FFF0
01C0
01C0
01C0
01C0
ENDCHAR
STARTCHAR five
ENCODING 53
SWIDTH 1000 0
DWIDTH 16 0
BBX 12 14 2 0
VVECTOR 9 14
SWIDTH1 0 -1000
DWIDTH1 0 -16
BITMAP 
7FE0
7FE0
7000
7000
7000
7F80
7FE0
00F0
0070
0070
E070
F0F0
7FE0
1F80
ENDCHAR
STARTCHAR six
ENCODING 54
SWIDTH 1000 0
DWIDTH 16 0
BBX 12 14 2 0
VVECTOR 9 14
SWIDTH1 0 -1000
DWIDTH1 0 -16
BITMAP 
1F80
3F80
7000
E000
E000
EF80
FFE0
F0F0
E070
E070
E070
F0F0
7FE0
1F80
ENDCHAR
STARTCHAR seven
ENCODING 55
SWIDTH 1000 0
DWIDTH 16 0
BBX 12 14 2 0
VVECTOR 9 14
SWIDTH1 0 -1000
DWIDTH1 0 -16
BITMAP 
FFF0
FFF0
0070
00E0
01C0
0380
0700
0700
0E00
0E00
0E00
1C00
1C00
1C00
ENDCHAR
STARTCHAR eight
ENCODING 56
SWIDTH 1000 0
DWIDTH 16 0
BBX 12 14 2 0
VVECTOR 9 14
SWIDTH1 0 -1000
DWIDTH1 0 -16
BITMAP 
1F80
7FE0
F0F0
E070
E070
70E0
3FC0
3FC0
70E0
E070
E070
F0F0
7FE0
1F80
ENDCHAR
STARTCHAR nine
ENCODING 57
SWIDTH 1000 0
DWIDTH 16 0
BBX 12 14 2 0
VVECTOR 9 14
SWIDTH1 0 -1000
DWIDTH1 0 -16
BITMAP 
1F80
7FE0
F0F0
E070
E070
E070
F0F0
7FF0
1F70
0070
0070
00E0
3FC0
3F80
ENDCHAR
STARTCHAR colon
ENCODING 58
SWIDTH 500 0
DWIDTH 8 0
BBX 3 10 2 0
VVECTOR 4 14
SWIDTH1 0 -1000
DWIDTH1 0 -16
BITMAP 
E0
E0
00
00
00
00
00
00
E0
E0
ENDCHAR
STARTCHAR semicolon
ENCODING 59
SWIDTH 625 0
DWIDTH 10 0
BBX 4 12 3 -2
VVECTOR 6 14
SWIDTH1 0 -1000
DWIDTH1 0 -16
BITMAP 
70
70
00
00
00
00
00
00
70
70
E0
E0
ENDCHAR
STARTCHAR less
ENCODING 60
SWIDTH 875 0
DWIDTH 14 0
BBX 9 13 2 0
VVECTOR 7 14
SWIDTH1 0 -1000
DWIDTH1 0 -16
BITMAP 
0380
0780
0F00
1E00
3C00
7800
F000
7800
3C00
1E00
0F00
0780
0380
ENDCHAR
STARTCHAR equal
ENCODING 61
SWIDTH 1000 0
DWIDTH 16 0
BBX 12 6 2 4
VVECTOR 9 14
SWIDTH1 0 -1000
DWIDTH1 0 -16
BITMAP 
FFF0
FFF0
0000
0000
FFF0
FFF0
ENDCHAR
STARTCHAR greater
ENCODING 62
SWIDTH 875 0
DWIDTH 14 0
BBX 9 13 3 0
VVECTOR 9 14
SWIDTH1 0 -1000
DWIDTH1 0 -16
BITMAP 
E000
F000
7800
3C00
1E00
0F00
0780
0F00
1E00
3C00
7800
F000
E000
ENDCHAR
STARTCHAR question
ENCODING 63
SWIDTH 1000 0
DWIDTH 16 0
BBX 12 14 2 0
VVECTOR 9 14
SWIDTH1 0 -1000
DWIDTH1 0 -16
BITMAP 
1F80
7FE0
F0F0
E070
0070
00F0
01E0
0780
0E00
0E00
0000
0000
0E00
0E00
ENDCHAR
STARTCHAR at
ENCODING 64
SWIDTH 1000 0
DWIDTH 16 0
BBX 14 13 0 0
VVECTOR 7 14
SWIDTH1 0 -1000
DWIDTH1 0 -16
BITMAP 
0FC0
3030
6018
C3CC
C6CC
CCCC
CCCC
CCCC
CDCC
C738
6000
3000
0F80
ENDCHAR
STARTCHAR A
ENCODING 65
SWIDTH 1000 0
DWIDTH 16 0
BBX 12 14 2 0
VVECTOR 9 14
SWIDTH1 0 -1000
DWIDTH1 0 -16
BITMAP 
3FC0
7FE0
F0F0
E070
E070
E070
E070
E070
FFF0
FFF0
E070
E070
E070
E070
ENDCHAR
STARTCHAR B
ENCODING 66
SWIDTH 1000 0
DWIDTH 16 0
BBX 12 14 2 0
VVECTOR 9 14
SWIDTH1 0 -1000
DWIDTH1 0 -16
BITMAP 
FF80
FFE0
E0F0
E070
E070
E0E0
FFC0
FFC0
E0E0
E070
E070
E0F0
FFE0
FF80
ENDCHAR
STARTCHAR C
ENCODING 67
SWIDTH 1000 0
DWIDTH 16 0
BBX 12 14 2 0
VVECTOR 9 14
SWIDTH1 0 -1000
DWIDTH1 0 -16
BITMAP 
1F80
7FE0
F0F0
E070
E000
E000
E000
E000
E000
E000
E070
F0F0
7FE0
1F80
ENDCHAR
STARTCHAR D
ENCODING 68
SWIDTH 1000 0
DWIDTH 16 0
BBX 12 14 2 0
VVECTOR 9 14
SWIDTH1 0 -1000
DWIDTH1 0 -16
BITMAP 
FF80
FFE0
E0F0
E070
E070
E070
E070
E070
E070
E070
E070
E0F0
FFE0
FFC0
ENDCHAR
STARTCHAR E
ENCODING 69
SWIDTH 875 0
DWIDTH 14 0
BBX 10 14 2 0
VVECTOR 8 14
SWIDTH1 0 -1000
DWIDTH1 0 -16
BITMAP 
FFC0
FFC0
E000
E000
E000
E000
FF00
FF00
E000
E000
E000
E000
FFC0
FFC0
ENDCHAR
STARTCHAR F
ENCODING 70
SWIDTH 875 0
DWIDTH 14 0
BBX 10 14 2 0
VVECTOR 8 14
SWIDTH1 0 -1000
DWIDTH1 0 -16
BITMAP 
FFC0
FFC0
E000
E000
E000
E000
FF00
FF00
E000
E000
E000
E000
E000
E000
ENDCHAR
STARTCHAR G
ENCODING 71
SWIDTH 1000 0
DWIDTH 16 0
BBX 12 14 2 0
VVECTOR 9 14
SWIDTH1 0 -1000
DWIDTH1 0 -16
BITMAP 
1FC0
7FE0
F0F0
E070
E000
E000
E000
E3F0
E3F0
E070
E070
F0F0
7FE0
1F80
ENDCHAR
STARTCHAR H
ENCODING 72
SWIDTH 1000 0
DWIDTH 16 0
BBX 12 14 2 0
VVECTOR 9 14
SWIDTH1 0 -1000
DWIDTH1 0 -16
BITMAP 
E070
E070
E070
E070
E070
E070
FFF0
FFF0
E070
E070
E070
E070
E070
E070
ENDCHAR
STARTCHAR I
ENCODING 73
SWIDTH 1000 0
DWIDTH 16 0
BBX 9 14 3 0
VVECTOR 8 14
SWIDTH1 0 -1000
DWIDTH1 0 -16
BITMAP 
FF80
FF80
1C00
1C00
1C00
1C00
1C00
1C00
1C00
1C00
1C00
1C00
FF80
FF80
ENDCHAR
STARTCHAR J
ENCODING 74
SWIDTH 1000 0
DWIDTH 16 0
BBX 12 14 2 0
VVECTOR 9 14
SWIDTH1 0 -1000
DWIDTH1 0 -16
BITMAP 
0070
0070
0070
0070
0070
0070
0070
0070
0070
E070
E070
F0F0
7FE0
3FC0
ENDCHAR
STARTCHAR K
ENCODING 75
SWIDTH 1125 0
DWIDTH 18 0
BBX 14 14 2 0
VVECTOR 10 14
SWIDTH1 0 -1000
DWIDTH1 0 -16
BITMAP 
E03C
E078
E0F0
E1E0
E3C0
E780
FF00
FF00
E780
E3C0
E1E0
E0F0
E078
E03C
ENDCHAR
STARTCHAR L
ENCODING 76
SWIDTH 1000 0
DWIDTH 16 0
BBX 12 14 2 0
VVECTOR 9 14
SWIDTH1 0 -1000
DWIDTH1 0 -16
BITMAP 
E000
E000
E000
E000
E000
E000
E000
E000
E000
E000
E000
E000
FFF0
FFF0
ENDCHAR
STARTCHAR M
ENCODING 77
SWIDTH 1125 0
DWIDTH 18 0
BBX 14 14 2 0
VVECTOR 10 14
SWIDTH1 0 -1000
DWIDTH1 0 -16
BITMAP 
8004
C00C
E01C
F03C
F87C
FCFC
FFFC
EFDC
E79C
E31C
E01C
E01C
E01C
E01C
ENDCHAR
STARTCHAR N
ENCODING 78
SWIDTH 1000 0
DWIDTH 16 0
BBX 12 14 2 0
VVECTOR 9 14
SWIDTH1 0 -1000
DWIDTH1 0 -16
BITMAP 
C070
E070
F070
F870
FC70
FE70
EE70
E770
E7F0
E3F0
E1F0
E0F0
E070
E030
ENDCHAR
STARTCHAR O
ENCODING 79
SWIDTH 1000 0
DWIDTH 16 0
BBX 12 14 2 0
VVECTOR 9 14
SWIDTH1 0 -1000
DWIDTH1 0 -16
BITMAP 
1F80
7FE0
F0F0
E070
E070
E070
E070
E070
E070
E070
E070
F0F0
7FE0
1F80
ENDCHAR
STARTCHAR P
ENCODING 80
SWIDTH 1000 0
DWIDTH 16 0
BBX 12 14 2 0
VVECTOR 9 14
SWIDTH1 0 -1000
DWIDTH1 0 -16
BITMAP 
FF80
FFE0
E0F0
E070
E070
E070
E0F0
FFE0
FF80
E000
E000
E000
E000
E000
ENDCHAR
STARTCHAR Q
ENCODING 81
SWIDTH 1000 0
DWIDTH 16 0
BBX 12 16 2 -2
VVECTOR 9 14
SWIDTH1 0 -1000
DWIDTH1 0 -16
BITMAP 
1F80
7FE0
F0F0
E070
E070
E070
E070
E070
E070
E070
E070
F0F0
7FE0
1FC0
00E0
0070
ENDCHAR
STARTCHAR R
ENCODING 82
SWIDTH 1000 0
DWIDTH 16 0
BBX 13 14 2 0
VVECTOR 10 14
SWIDTH1 0 -1000
DWIDTH1 0 -16
BITMAP 
FF80
FFE0
E0F0
E070
E070
E070
E0F0
FFE0
FF80
E3C0
E1E0
E0F0
E078
E038
ENDCHAR
STARTCHAR S
ENCODING 83
SWIDTH 1000 0
DWIDTH 16 0
BBX 12 14 2 0
VVECTOR 9 14
SWIDTH1 0 -1000
DWIDTH1 0 -16
BITMAP 
1F80
7FE0
F0F0
E070
E000
F800
7F80
1FE0
01F0
0070
E070
F0F0
7FE0
1F80
ENDCHAR
STARTCHAR T
ENCODING 84
SWIDTH 1000 0
DWIDTH 16 0
BBX 13 14 2 0
VVECTOR 10 14
SWIDTH1 0 -1000
DWIDTH1 0 -16
BITMAP 
FFF8
FFF8
0700
0700
0700
0700
0700
0700
0700
0700
0700
0700
0700
0700
ENDCHAR
STARTCHAR U
ENCODING 85
SWIDTH 1000 0
DWIDTH 16 0
BBX 12 14 2 0
VVECTOR 9 14
SWIDTH1 0 -1000
DWIDTH1 0 -16
BITMAP 
E070
E070
E070
E070
E070
E070
E070
E070
E070
E070
E070
F0F0
7FE0
1F80
ENDCHAR
STARTCHAR V
ENCODING 86
SWIDTH 1125 0
DWIDTH 18 0
BBX 16 14 1 0
VVECTOR 10 14
SWIDTH1 0 -1000
DWIDTH1 0 -16
BITMAP 
E007
E007
700E
700E
381C
381C
1C38
1C38
0E70
0E70
07E0
03C0
03C0
0180
ENDCHAR
STARTCHAR W
ENCODING 87
SWIDTH 1125 0
DWIDTH 18 0
BBX 15 14 1 0
VVECTOR 9 14
SWIDTH1 0 -1000
DWIDTH1 0 -16
BITMAP 
E38E
E38E
E38E
E38E
E38E
E38E
E38E
E38E
E38E
E38E
E38E
F7DE
7EFC
3C78
ENDCHAR
STARTCHAR X
ENCODING 88
SWIDTH 1000 0
DWIDTH 16 0
BBX 15 14 1 0
VVECTOR 10 14
SWIDTH1 0 -1000
DWIDTH1 0 -16
BITMAP 
E00E
F01E
783C
3C78
1EF0
0FE0
07C0
07C0
0FE0
1EF0
3C78
783C
F01E
E00E
ENDCHAR
STARTCHAR Y
ENCODING 89
SWIDTH 1000 0
DWIDTH 16 0
BBX 14 14 1 0
VVECTOR 9 14
SWIDTH1 0 -1000
DWIDTH1 0 -16
BITMAP 
E01C
E01C
7038
7878
3870
1CE0
1FE0
0FC0
0780
0780
0780
0780
0780
0780
ENDCHAR
STARTCHAR Z
ENCODING 90
SWIDTH 1000 0
DWIDTH 16 0
BBX 12 14 2 0
VVECTOR 9 14
SWIDTH1 0 -1000
DWIDTH1 0 -16
BITMAP 
FFF0
FFF0
00F0
01E0
03C0
0780
0700
0F00
1E00
3C00
7800
F000
FFF0
FFF0
ENDCHAR
STARTCHAR bracketleft
ENCODING 91
SWIDTH 750 0
DWIDTH 12 0
BBX 8 16 2 -2
VVECTOR 7 14
SWIDTH1 0 -1000
DWIDTH1 0 -16
BITMAP 
FF
FF
E0
E0
E0
E0
E0
E0
E0
E0
E0
E0
E0
E0
FF
FF
ENDCHAR
STARTCHAR backslash
ENCODING 92
SWIDTH 1000 0
DWIDTH 16 0
BBX 15 14 1 0
VVECTOR 10 14
SWIDTH1 0 -1000
DWIDTH1 0 -16
BITMAP 
E000
F000
7800
3C00
1E00
0F00
0780
03C0
01E0
00F0
0078
003C
001E
000E
ENDCHAR
STARTCHAR bracketright
ENCODING 93
SWIDTH 750 0
DWIDTH 12 0
BBX 8 16 2 -2
VVECTOR 7 14
SWIDTH1 0 -1000
DWIDTH1 0 -16
BITMAP 
FF
FF
07
07
07
07
07
07
07
07
07
07
07
07
FF
FF
ENDCHAR
STARTCHAR asciicircum
ENCODING 94
SWIDTH 1000 0
DWIDTH 16 0
BBX 9 4 3 10
VVECTOR 8 14
SWIDTH1 0 -1000
DWIDTH1 0 -16
BITMAP 
1C00
3E00
6F00
C780
ENDCHAR
STARTCHAR underscore
ENCODING 95
SWIDTH 1000 0
DWIDTH 16 0
BBX 16 1 0 -2
VVECTOR 9 14
SWIDTH1 0 -1000
DWIDTH1 0 -16
BITMAP 
FFFF
ENDCHAR
STARTCHAR grave
ENCODING 96
SWIDTH 625 0
DWIDTH 10 0
BBX 6 5 2 9
VVECTOR 6 14
SWIDTH1 0 -1000
DWIDTH1 0 -16
BITMAP 
E0
F0
F8
1C
04
ENDCHAR
STARTCHAR a
ENCODING 97
SWIDTH 1000 0
DWIDTH 16 0
BBX 12 10 2 0
VVECTOR 9 14
SWIDTH1 0 -1000
DWIDTH1 0 -16
BITMAP 
1FF0
7FF0
F070
E070
E070
E070
E070
F0F0
7FF0
1F70
ENDCHAR
STARTCHAR b
ENCODING 98
SWIDTH 1000 0
DWIDTH 16 0
BBX 12 14 2 0
VVECTOR 9 14
SWIDTH1 0 -1000
DWIDTH1 0 -16
BITMAP 
E000
E000
E000
E000
EF80
FFE0
F0F0
E070
E070
E070
E070
F0F0
FFE0
EF80
ENDCHAR
STARTCHAR c
ENCODING 99
SWIDTH 1000 0
DWIDTH 16 0
BBX 12 10 2 0
VVECTOR 9 14
SWIDTH1 0 -1000
DWIDTH1 0 -16
BITMAP 
1F80
7FE0
F0F0
E070
E000
E000
E070
F0F0
7FE0
1F80
ENDCHAR
STARTCHAR d
ENCODING 100
SWIDTH 1000 0
DWIDTH 16 0
BBX 12 14 2 0
VVECTOR 9 14
SWIDTH1 0 -1000
DWIDTH1 0 -16
BITMAP 
0070
0070
0070
0070
1F70
7FF0
F0F0
E070
E070
E070
E070
F0F0
7FF0
1F70
ENDCHAR
STARTCHAR e
ENCODING 101
SWIDTH 1000 0
DWIDTH 16 0
BBX 12 10 2 0
VVECTOR 9 14
SWIDTH1 0 -1000
DWIDTH1 0 -16
BITMAP 
1F80
7FE0
F0F0
E070
FFF0
FFF0
E000
F070
7FE0
1FC0
ENDCHAR
STARTCHAR f
ENCODING 102
SWIDTH 875 0
DWIDTH 14 0
BBX 10 14 2 0
VVECTOR 8 14
SWIDTH1 0 -1000
DWIDTH1 0 -16
BITMAP 
07C0
0FC0
1C00
1C00
FFC0
FFC0
1C00
1C00
1C00
1C00
1C00
1C00
1C00
1C00
ENDCHAR
STARTCHAR g
ENCODING 103
SWIDTH 1000 0
DWIDTH 16 0
BBX 12 12 2 -2
VVECTOR 9 14
SWIDTH1 0 -1000
DWIDTH1 0 -16
BITMAP 
1F70
7FF0
F0F0
E070
E070
E070
F0F0
7FF0
1F70
40E0
7FC0
3F80
ENDCHAR
STARTCHAR h
ENCODING 104
SWIDTH 1000 0
DWIDTH 16 0
BBX 12 14 2 0
VVECTOR 9 14
SWIDTH1 0 -1000
DWIDTH1 0 -16
BITMAP 
E000
E000
E000
E000
EF80
FFE0
F0F0
E070
E070
E070
E070
E070
E070
E070
ENDCHAR
STARTCHAR i
ENCODING 105
SWIDTH 750 0
DWIDTH 12 0
BBX 9 14 2 0
VVECTOR 8 14
SWIDTH1 0 -1000
DWIDTH1 0 -16
BITMAP 
1C00
1C00
0000
0000
FC00
FC00
1C00
1C00
1C00
1C00
1C00
1C00
FF80
FF80
ENDCHAR
STARTCHAR j
ENCODING 106
SWIDTH 875 0
DWIDTH 14 0
BBX 10 16 2 -2
VVECTOR 8 14
SWIDTH1 0 -1000
DWIDTH1 0 -16
BITMAP 
01C0
01C0
0000
0000
07C0
07C0
01C0
01C0
01C0
01C0
01C0
01C0
E1C0
F3C0
7F80
1E00
ENDCHAR
STARTCHAR k
ENCODING 107
SWIDTH 1000 0
DWIDTH 16 0
BBX 12 14 2 0
VVECTOR 9 14
SWIDTH1 0 -1000
DWIDTH1 0 -16
BITMAP 
E000
E000
E000
E000
E0F0
E1E0
E3C0
E780
FF00
FF00
E780
E3C0
E1E0
E0F0
ENDCHAR
STARTCHAR l
ENCODING 108
SWIDTH 1000 0
DWIDTH 16 0
BBX 7 14 5 0
VVECTOR 10 14
SWIDTH1 0 -1000
DWIDTH1 0 -16
BITMAP 
F8
F8
38
38
38
38
38
38
38
38
38
38
FE
FE
ENDCHAR
STARTCHAR m
ENCODING 109
SWIDTH 1125 0
DWIDTH 18 0
BBX 15 10 1 0
VVECTOR 9 14
SWIDTH1 0 -1000
DWIDTH1 0 -16
BITMAP 
DF78
FFFC
F3CE
E38E
E38E
E38E
E38E
E38E
E38E
E38E
ENDCHAR
STARTCHAR n
ENCODING 110
SWIDTH 1000 0
DWIDTH 16 0
BBX 12 10 2 0
VVECTOR 9 14
SWIDTH1 0 -1000
DWIDTH1 0 -16
BITMAP 
EF80
FFE0
F0F0
E070
E070
E070
E070
E070
E070
E070
ENDCHAR
STARTCHAR o
ENCODING 111
SWIDTH 1000 0
DWIDTH 16 0
BBX 12 10 2 0
VVECTOR 9 14
SWIDTH1 0 -1000
DWIDTH1 0 -16
BITMAP 
1F80
7FE0
F0F0
E070
E070
E070
E070
F0F0
7FE0
1F80
ENDCHAR
STARTCHAR p
ENCODING 112
SWIDTH 1000 0
DWIDTH 16 0
BBX 12 12 2 -2
VVECTOR 9 14
SWIDTH1 0 -1000
DWIDTH1 0 -16
BITMAP 
EF80
FFE0
F0F0
E070
E070
E070
E070
F0F0
FFE0
EF80
E000
E000
ENDCHAR
STARTCHAR q
ENCODING 113
SWIDTH 1000 0
DWIDTH 16 0
BBX 12 12 2 -2
VVECTOR 9 14
SWIDTH1 0 -1000
DWIDTH1 0 -16
BITMAP 
1F70
7FF0
F0F0
E070
E070
E070
E070
F0F0
7FF0
1F70
0070
0070
ENDCHAR
STARTCHAR r
ENCODING 114
SWIDTH 875 0
DWIDTH 14 0
BBX 10 10 3 0
VVECTOR 10 14
SWIDTH1 0 -1000
DWIDTH1 0 -16
BITMAP 
E3C0
EFC0
FC00
F800
F000
F000
E000
E000
E000
E000
ENDCHAR
STARTCHAR s
ENCODING 115
SWIDTH 1000 0
DWIDTH 16 0
BBX 10 10 3 0
VVECTOR 9 14
SWIDTH1 0 -1000
DWIDTH1 0 -16
BITMAP 
3F00
7F80
E180
E000
7F00
3F80
01C0
C1C0
FF80
7F00
ENDCHAR
STARTCHAR t
ENCODING 116
SWIDTH 1000 0
DWIDTH 16 0
BBX 10 12 2 0
VVECTOR 7 14
SWIDTH1 0 -1000
DWIDTH1 0 -16
BITMAP 
1C00
1C00
FFC0
FFC0
1C00
1C00
1C00
1C00
1C00
1E00
0FC0
07C0
ENDCHAR
STARTCHAR u
ENCODING 117
SWIDTH 1000 0
DWIDTH 16 0
BBX 12 10 2 0
VVECTOR 9 14
SWIDTH1 0 -1000
DWIDTH1 0 -16
BITMAP 
E070
E070
E070
E070
E070
E070
E070
F0F0
7FF0
1F70
ENDCHAR
STARTCHAR v
ENCODING 118
SWIDTH 1125 0
DWIDTH 18 0
BBX 14 10 2 0
VVECTOR 10 14
SWIDTH1 0 -1000
DWIDTH1 0 -16
BITMAP 
E01C
E01C
7038
7038
3870
3870
1CE0
0CC0
0FC0
0780
ENDCHAR
STARTCHAR w
ENCODING 119
SWIDTH 1125 0
DWIDTH 18 0
BBX 15 10 1 0
VVECTOR 9 14
SWIDTH1 0 -1000
DWIDTH1 0 -16
BITMAP 
E00E
E38E
E38E
E38E
E38E
E38E
E38E
E7CE
7EFC
3C78
ENDCHAR
STARTCHAR x
ENCODING 120
SWIDTH 1000 0
DWIDTH 16 0
BBX 12 10 2 0
VVECTOR 9 14
SWIDTH1 0 -1000
DWIDTH1 0 -16
BITMAP 
E070
F0F0
79E0
3FC0
1F80
1F80
3FC0
79E0
F0F0
E070
ENDCHAR
STARTCHAR y
ENCODING 121
SWIDTH 1000 0
DWIDTH 16 0
BBX 12 12 2 -2
VVECTOR 9 14
SWIDTH1 0 -1000
DWIDTH1 0 -16
BITMAP 
E070
E070
E070
E070
E070
F0F0
7FF0
1F70
0070
40E0
7FC0
3F80
ENDCHAR
STARTCHAR z
ENCODING 122
SWIDTH 1000 0
DWIDTH 16 0
BBX 11 10 3 0
VVECTOR 10 14
SWIDTH1 0 -1000
DWIDTH1 0 -16
BITMAP 
FFE0
FFE0
03C0
0780
0F00
1E00
3C00
7800
FFE0
FFE0
ENDCHAR
STARTCHAR braceleft
ENCODING 123
SWIDTH 1000 0
DWIDTH 16 0
BBX 12 16 2 -2
VVECTOR 9 14
SWIDTH1 0 -1000
DWIDTH1 0 -16
BITMAP 
03F0
0700
0E00
0E00
0E00
0C00
1800
F000
1800
0C00
0E00
0E00
0E00
0E00
0700
03F0
ENDCHAR
STARTCHAR bar
ENCODING 124
SWIDTH 750 0
DWIDTH 12 0
BBX 3 16 4 -2
VVECTOR 6 14
SWIDTH1 0 -1000
DWIDTH1 0 -16
BITMAP 
E0
E0
E0
E0
E0
E0
E0
E0
E0
E0
E0
E0
E0
E0
E0
E0
ENDCHAR
STARTCHAR braceright
ENCODING 125
SWIDTH 1000 0
DWIDTH 16 0
BBX 12 16 2 -2
VVECTOR 9 14
SWIDTH1 0 -1000
DWIDTH1 0 -16
BITMAP 
FC00
0E00
0700
0700
0700
0300
0180
00F0
0180
0300
0700
0700
0700
0700
0E00
FC00
ENDCHAR
STARTCHAR asciitilde
ENCODING 126
SWIDTH 1125 0
DWIDTH 18 0
BBX 16 4 0 10
VVECTOR 8 14
SWIDTH1 0 -1000
DWIDTH1 0 -16
BITMAP 
1F01
3FC2
47FC
81F8
ENDCHAR
STARTCHAR char7F
ENCODING 127
SWIDTH 125 0
DWIDTH 2 0
BBX 0 0 2 14
VVECTOR 4 14
SWIDTH1 0 -1000
DWIDTH1 0 -16
BITMAP 
ENDCHAR
STARTCHAR Adieresis
ENCODING 128
SWIDTH 1000 0
DWIDTH 16 0
BBX 12 14 2 0
VVECTOR 9 14
SWIDTH1 0 -1000
DWIDTH1 0 -16
BITMAP 
30C0
30C0
0000
0000
1F80
7FE0
F0F0
E070
E070
FFF0
FFF0
E070
E070
E070
ENDCHAR
STARTCHAR Aring
ENCODING 129
SWIDTH 1000 0
DWIDTH 16 0
BBX 12 14 2 0
VVECTOR 9 14
SWIDTH1 0 -1000
DWIDTH1 0 -16
BITMAP 
1F80
6060
6060
1F80
3FC0
70E0
E070
E070
E070
E070
FFF0
FFF0
E070
E070
ENDCHAR
STARTCHAR Ccedilla
ENCODING 130
SWIDTH 1000 0
DWIDTH 16 0
BBX 12 16 2 -2
VVECTOR 9 14
SWIDTH1 0 -1000
DWIDTH1 0 -16
BITMAP 
1F80
7FE0
F0F0
E070
E000
E000
E000
E000
E000
E000
E070
F0F0
7FE0
1F80
0200
0600
ENDCHAR
STARTCHAR Eacute
ENCODING 131
SWIDTH 875 0
DWIDTH 14 0
BBX 10 14 2 0
VVECTOR 8 14
SWIDTH1 0 -1000
DWIDTH1 0 -16
BITMAP 
0300
0700
0800
0000
FFC0
FFC0
E000
E000
FF00
FF00
E000
E000
FFC0
FFC0
ENDCHAR
STARTCHAR Ntilde
ENCODING 132
SWIDTH 1125 0
DWIDTH 18 0
BBX 14 14 2 0
VVECTOR 10 14
SWIDTH1 0 -1000
DWIDTH1 0 -16
BITMAP 
3F04
4FC8
83F0
0000
0000
C00C
F00C
FC0C
FF0C
CFCC
C3FC
C0FC
C03C
C00C
ENDCHAR
STARTCHAR Odieresis
ENCODING 133
SWIDTH 1000 0
DWIDTH 16 0
BBX 12 14 2 0
VVECTOR 9 14
SWIDTH1 0 -1000
DWIDTH1 0 -16
BITMAP 
30C0
30C0
0000
0000
1F80
7FE0
F0F0
E070
E070
E070
E070
F0F0
7FE0
1F80
ENDCHAR
STARTCHAR Udieresis
ENCODING 134
SWIDTH 1000 0
DWIDTH 16 0
BBX 12 14 2 0
VVECTOR 9 14
SWIDTH1 0 -1000
DWIDTH1 0 -16
BITMAP 
30C0
30C0
0000
0000
E070
E070
E070
E070
E070
E070
E070
F0F0
7FE0
1F80
ENDCHAR
STARTCHAR aacute
ENCODING 135
SWIDTH 1000 0
DWIDTH 16 0
BBX 12 14 2 0
VVECTOR 9 14
SWIDTH1 0 -1000
DWIDTH1 0 -16
BITMAP 
0060
00E0
0180
0200
0000
1FF0
7FF0
F070
E070
E070
E070
F0F0
7FF0
1F70
ENDCHAR
STARTCHAR agrave
ENCODING 136
SWIDTH 1000 0
DWIDTH 16 0
BBX 12 14 2 0
VVECTOR 9 14
SWIDTH1 0 -1000
DWIDTH1 0 -16
BITMAP 
1800
1C00
0600
0100
0000
1FF0
7FF0
F070
E070
E070
E070
F0F0
7FF0
1F70
ENDCHAR
STARTCHAR acircumflex
ENCODING 137
SWIDTH 1000 0
DWIDTH 16 0
BBX 12 14 2 0
VVECTOR 9 14
SWIDTH1 0 -1000
DWIDTH1 0 -16
BITMAP 
0780
0CC0
1860
0000
1FF0
7FF0
F070
E070
E070
E070
E070
F0F0
7FF0
1F70
ENDCHAR
STARTCHAR adieresis
ENCODING 138
SWIDTH 1000 0
DWIDTH 16 0
BBX 12 14 2 0
VVECTOR 9 14
SWIDTH1 0 -1000
DWIDTH1 0 -16
BITMAP 
1860
1860
0000
0000
1FF0
7FF0
F070
E070
E070
E070
E070
F0F0
7FF0
1F70
ENDCHAR
STARTCHAR atilde
ENCODING 139
SWIDTH 1000 0
DWIDTH 16 0
BBX 13 14 2 0
VVECTOR 10 14
SWIDTH1 0 -1000
DWIDTH1 0 -16
BITMAP 
1E08
2790
41E0
0000
1FF0
7FF0
F070
E070
E070
E070
E070
F0F0
7FF0
1F70
ENDCHAR
STARTCHAR aring
ENCODING 140
SWIDTH 1000 0
DWIDTH 16 0
BBX 12 14 2 0
VVECTOR 9 14
SWIDTH1 0 -1000
DWIDTH1 0 -16
BITMAP 
0780
0840
1860
0840
0780
0000
1FF0
7FF0
F070
E070
E070
F0F0
7FF0
1F70
ENDCHAR
STARTCHAR ccedilla
ENCODING 141
SWIDTH 1000 0
DWIDTH 16 0
BBX 12 12 2 -2
VVECTOR 9 14
SWIDTH1 0 -1000
DWIDTH1 0 -16
BITMAP 
1F80
7FE0
F0F0
E070
E000
E000
E070
F0F0
7FE0
1F80
0200
0600
ENDCHAR
STARTCHAR eacute
ENCODING 142
SWIDTH 1000 0
DWIDTH 16 0
BBX 12 14 2 0
VVECTOR 9 14
SWIDTH1 0 -1000
DWIDTH1 0 -16
BITMAP 
0300
0700
0800
0000
1F80
7FE0
F0F0
E070
FFF0
FFF0
E000
F070
7FE0
3FC0
ENDCHAR
STARTCHAR egrave
ENCODING 143
SWIDTH 1000 0
DWIDTH 16 0
BBX 12 14 2 0
VVECTOR 9 14
SWIDTH1 0 -1000
DWIDTH1 0 -16
BITMAP 
1800
1C00
0200
0000
1F80
7FE0
F0F0
E070
FFF0
FFF0
E000
F070
7FE0
1FC0
ENDCHAR
STARTCHAR ecircumflex
ENCODING 144
SWIDTH 1000 0
DWIDTH 16 0
BBX 12 14 2 0
VVECTOR 9 14
SWIDTH1 0 -1000
DWIDTH1 0 -16
BITMAP 
0F00
1980
30C0
0000
1F80
7FE0
F0F0
E070
FFF0
FFF0
E000
F070
7FE0
1FC0
ENDCHAR
STARTCHAR edieresis
ENCODING 145
SWIDTH 1000 0
DWIDTH 16 0
BBX 12 14 2 0
VVECTOR 9 14
SWIDTH1 0 -1000
DWIDTH1 0 -16
BITMAP 
30C0
30C0
0000
0000
1F80
7FE0
F0F0
E070
FFF0
FFF0
E000
F070
7FE0
1FC0
ENDCHAR
STARTCHAR iacute
ENCODING 146
SWIDTH 750 0
DWIDTH 12 0
BBX 7 14 3 0
VVECTOR 8 14
SWIDTH1 0 -1000
DWIDTH1 0 -16
BITMAP 
0C
1C
30
40
00
F8
F8
38
38
38
38
38
FE
FE
ENDCHAR
STARTCHAR igrave
ENCODING 147
SWIDTH 750 0
DWIDTH 12 0
BBX 8 14 2 0
VVECTOR 7 14
SWIDTH1 0 -1000
DWIDTH1 0 -16
BITMAP 
C0
E0
30
08
00
7C
7C
1C
1C
1C
1C
1C
7F
7F
ENDCHAR
STARTCHAR icircumflex
ENCODING 148
SWIDTH 750 0
DWIDTH 12 0
BBX 8 14 2 0
VVECTOR 7 14
SWIDTH1 0 -1000
DWIDTH1 0 -16
BITMAP 
38
6C
C6
00
7C
7C
1C
1C
1C
1C
1C
1C
7F
7F
ENDCHAR
STARTCHAR idieresis
ENCODING 149
SWIDTH 750 0
DWIDTH 12 0
BBX 8 14 2 0
VVECTOR 7 14
SWIDTH1 0 -1000
DWIDTH1 0 -16
BITMAP 
C3
C3
00
00
7C
7C
1C
1C
1C
1C
1C
1C
7F
7F
ENDCHAR
STARTCHAR ntilde
ENCODING 150
SWIDTH 1000 0
DWIDTH 16 0
BBX 12 14 2 0
VVECTOR 9 14
SWIDTH1 0 -1000
DWIDTH1 0 -16
BITMAP 
3C10
4F20
83C0
0000
EF80
FFE0
F0F0
E070
E070
E070
E070
E070
E070
E070
ENDCHAR
STARTCHAR oacute
ENCODING 151
SWIDTH 1000 0
DWIDTH 16 0
BBX 12 14 2 0
VVECTOR 9 14
SWIDTH1 0 -1000
DWIDTH1 0 -16
BITMAP 
0180
0380
0400
0000
1F80
7FE0
F0F0
E070
E070
E070
E070
F0F0
7FE0
1F80
ENDCHAR
STARTCHAR ograve
ENCODING 152
SWIDTH 1000 0
DWIDTH 16 0
BBX 12 14 2 0
VVECTOR 9 14
SWIDTH1 0 -1000
DWIDTH1 0 -16
BITMAP 
1800
1C00
0200
0000
1F80
7FE0
F0F0
E070
E070
E070
E070
F0F0
7FE0
1F80
ENDCHAR
STARTCHAR ocircumflex
ENCODING 153
SWIDTH 1000 0
DWIDTH 16 0
BBX 12 14 2 0
VVECTOR 9 14
SWIDTH1 0 -1000
DWIDTH1 0 -16
BITMAP 
0F00
1980
30C0
0000
1F80
7FE0
F0F0
E070
E070
E070
E070
F0F0
7FE0
1F80
ENDCHAR
STARTCHAR odieresis
ENCODING 154
SWIDTH 1000 0
DWIDTH 16 0
BBX 12 14 2 0
VVECTOR 9 14
SWIDTH1 0 -1000
DWIDTH1 0 -16
BITMAP 
30C0
30C0
0000
0000
1F80
7FE0
F0F0
E070
E070
E070
E070
F0F0
7FE0
1F80
ENDCHAR
STARTCHAR otilde
ENCODING 155
SWIDTH 1000 0
DWIDTH 16 0
BBX 12 14 2 0
VVECTOR 9 14
SWIDTH1 0 -1000
DWIDTH1 0 -16
BITMAP 
3C10
4F20
83C0
0000
1F80
7FE0
F0F0
E070
E070
E070
E070
F0F0
7FE0
1F80
ENDCHAR
STARTCHAR uacute
ENCODING 156
SWIDTH 1000 0
DWIDTH 16 0
BBX 12 14 2 0
VVECTOR 9 14
SWIDTH1 0 -1000
DWIDTH1 0 -16
BITMAP 
0180
0380
0400
0000
E070
E070
E070
E070
E070
E070
E070
F0F0
7FF0
1F70
ENDCHAR
STARTCHAR ugrave
ENCODING 157
SWIDTH 1000 0
DWIDTH 16 0
BBX 12 14 2 0
VVECTOR 9 14
SWIDTH1 0 -1000
DWIDTH1 0 -16
BITMAP 
1800
1C00
0200
0000
E070
E070
E070
E070
E070
E070
E070
F0F0
7FF0
1F70
ENDCHAR
STARTCHAR ucircumflex
ENCODING 158
SWIDTH 1000 0
DWIDTH 16 0
BBX 12 14 2 0
VVECTOR 9 14
SWIDTH1 0 -1000
DWIDTH1 0 -16
BITMAP 
0F00
1980
30C0
0000
E070
E070
E070
E070
E070
E070
E070
F0F0
7FF0
1F70
ENDCHAR
STARTCHAR udieresis
ENCODING 159
SWIDTH 1000 0
DWIDTH 16 0
BBX 12 14 2 0
VVECTOR 9 14
SWIDTH1 0 -1000
DWIDTH1 0 -16
BITMAP 
30C0
30C0
0000
0000
E070
E070
E070
E070
E070
E070
E070
F0F0
7FF0
1F70
ENDCHAR
STARTCHAR dagger
ENCODING 160
SWIDTH 1000 0
DWIDTH 16 0
BBX 11 16 3 -2
VVECTOR 10 14
SWIDTH1 0 -1000
DWIDTH1 0 -16
BITMAP 
0E00
0E00
FFE0
FFE0
0E00
0E00
FFE0
FFE0
0E00
0E00
0E00
0E00
0E00
0E00
0E00
0E00
ENDCHAR
STARTCHAR degree
ENCODING 161
SWIDTH 875 0
DWIDTH 14 0
BBX 10 7 2 6
VVECTOR 8 14
SWIDTH1 0 -1000
DWIDTH1 0 -16
BITMAP 
1E00
7F80
E1C0
E1C0
E1C0
7F80
1E00
ENDCHAR
STARTCHAR cent
ENCODING 162
SWIDTH 875 0
DWIDTH 14 0
BBX 11 16 2 -2
VVECTOR 9 14
SWIDTH1 0 -1000
DWIDTH1 0 -16
BITMAP 
0600
0600
0600
0600
1F80
7FC0
F0E0
E000
E000
F0E0
7FC0
1F80
0600
0600
0600
0600
ENDCHAR
STARTCHAR sterling
ENCODING 163
SWIDTH 1000 0
DWIDTH 16 0
BBX 14 14 0 0
VVECTOR 7 14
SWIDTH1 0 -1000
DWIDTH1 0 -16
BITMAP 
07E0
1FF0
3C18
3800
3800
3800
FFC0
FFC0
3800
3800
380C
381C
FFF8
FFF0
ENDCHAR
STARTCHAR section
ENCODING 164
SWIDTH 1000 0
DWIDTH 16 0
BBX 12 16 2 -2
VVECTOR 9 14
SWIDTH1 0 -1000
DWIDTH1 0 -16
BITMAP 
3E00
7F00
E000
7800
1F00
7FC0
F0E0
E070
E070
70E0
3FC0
0F80
01E0
0070
0FE0
07C0
ENDCHAR
STARTCHAR bullet
ENCODING 165
SWIDTH 875 0
DWIDTH 14 0
BBX 6 6 4 2
VVECTOR 8 14
SWIDTH1 0 -1000
DWIDTH1 0 -16
BITMAP 
FC
FC
FC
FC
FC
FC
ENDCHAR
STARTCHAR paragraph
ENCODING 166
SWIDTH 875 0
DWIDTH 14 0
BBX 10 16 2 -2
VVECTOR 8 14
SWIDTH1 0 -1000
DWIDTH1 0 -16
BITMAP 
3FC0
7FC0
ECC0
CCC0
CCC0
CCC0
CCC0
ECC0
7FC0
3FC0
0CC0
0CC0
0CC0
0CC0
0CC0
0CC0
ENDCHAR
STARTCHAR germandbls
ENCODING 167
SWIDTH 1000 0
DWIDTH 16 0
BBX 12 14 2 0
VVECTOR 9 14
SWIDTH1 0 -1000
DWIDTH1 0 -16
BITMAP 
1E00
3F80
71C0
E0C0
E1C0
E380
E700
E1C0
E0E0
E070
F070
F8F0
EFE0
E7C0
ENDCHAR
STARTCHAR registered
ENCODING 168
SWIDTH 1000 0
DWIDTH 16 0
BBX 11 8 2 6
VVECTOR 8 14
SWIDTH1 0 -1000
DWIDTH1 0 -16
BITMAP 
FF80
FFC0
E0E0
E0E0
FFC0
FF80
E1C0
E0E0
ENDCHAR
STARTCHAR copyright
ENCODING 169
SWIDTH 875 0
DWIDTH 14 0
BBX 10 8 2 5
VVECTOR 8 14
SWIDTH1 0 -1000
DWIDTH1 0 -16
BITMAP 
1E00
7F80
F1C0
E000
E000
F1C0
7F80
1E00
ENDCHAR
STARTCHAR trademark
ENCODING 170
SWIDTH 1375 0
DWIDTH 22 0
BBX 17 6 3 8
VVECTOR 13 14
SWIDTH1 0 -1000
DWIDTH1 0 -16
BITMAP 
FD8180
FDC380
31E780
31BD80
319980
318180
ENDCHAR
STARTCHAR acute
ENCODING 171
SWIDTH 875 0
DWIDTH 14 0
BBX 5 4 4 10
VVECTOR 7 14
SWIDTH1 0 -1000
DWIDTH1 0 -16
BITMAP 
18
38
60
80
ENDCHAR
STARTCHAR dieresis
ENCODING 172
SWIDTH 750 0
DWIDTH 12 0
BBX 8 2 2 12
VVECTOR 7 14
SWIDTH1 0 -1000
DWIDTH1 0 -16
BITMAP 
C3
C3
ENDCHAR
STARTCHAR notequal
ENCODING 173
SWIDTH 1000 0
DWIDTH 16 0
BBX 12 10 2 2
VVECTOR 9 14
SWIDTH1 0 -1000
DWIDTH1 0 -16
BITMAP 
00E0
01C0
FFF0
FFF0
0700
0E00
FFF0
FFF0
3800
7000
ENDCHAR
STARTCHAR AE
ENCODING 174
SWIDTH 1250 0
DWIDTH 20 0
BBX 16 14 2 0
VVECTOR 11 14
SWIDTH1 0 -1000
DWIDTH1 0 -16
BITMAP 
1E7F
7FFF
F1E0
E0E0
E0E0
E0E0
E0FF
FFFF
FFE0
E0E0
E0E0
E0E0
E0FF
E0FF
ENDCHAR
STARTCHAR Oslash
ENCODING 175
SWIDTH 1125 0
DWIDTH 18 0
BBX 14 14 2 0
VVECTOR 10 14
SWIDTH1 0 -1000
DWIDTH1 0 -16
BITMAP 
1FE0
7FF8
F01C
E03C
E07C
E0DC
E19C
E31C
E61C
EC1C
F81C
F03C
7FF8
1FE0
ENDCHAR
STARTCHAR infinity
ENCODING 176
SWIDTH 1000 0
DWIDTH 16 0
BBX 14 8 0 2
VVECTOR 7 14
SWIDTH1 0 -1000
DWIDTH1 0 -16
BITMAP 
3C70
7EF8
C7CC
C38C
C70C
CF8C
7DF8
38F0
ENDCHAR
STARTCHAR plusminus
ENCODING 177
SWIDTH 1000 0
DWIDTH 16 0
BBX 11 11 2 0
VVECTOR 8 14
SWIDTH1 0 -1000
DWIDTH1 0 -16
BITMAP 
0E00
0E00
0E00
FFE0
FFE0
0E00
0E00
0E00
0000
FFE0
FFE0
ENDCHAR
STARTCHAR lessequal
ENCODING 178
SWIDTH 875 0
DWIDTH 14 0
BBX 10 12 2 0
VVECTOR 8 14
SWIDTH1 0 -1000
DWIDTH1 0 -16
BITMAP 
0700
0E00
1C00
3800
7000
3800
1C00
0E00
0700
0000
FFC0
FFC0
ENDCHAR
STARTCHAR greaterequal
ENCODING 179
SWIDTH 875 0
DWIDTH 14 0
BBX 10 12 2 0
VVECTOR 8 14
SWIDTH1 0 -1000
DWIDTH1 0 -16
BITMAP 
3800
1C00
0E00
0700
0380
0700
0E00
1C00
3800
0000
FFC0
FFC0
ENDCHAR
STARTCHAR yen
ENCODING 180
SWIDTH 1000 0
DWIDTH 16 0
BBX 13 14 2 0
VVECTOR 10 14
SWIDTH1 0 -1000
DWIDTH1 0 -16
BITMAP 
C018
E038
7070
38E0
1DC0
0F80
0700
7FF0
0700
0700
7FF0
0700
0700
0700
ENDCHAR
STARTCHAR mu
ENCODING 181
SWIDTH 1000 0
DWIDTH 16 0
BBX 12 12 2 -2
VVECTOR 9 14
SWIDTH1 0 -1000
DWIDTH1 0 -16
BITMAP 
E070
E070
E070
E070
E070
E070
E070
F0F0
FFF0
EF30
C000
8000
ENDCHAR
STARTCHAR partialdiff
ENCODING 182
SWIDTH 1000 0
DWIDTH 16 0
BBX 12 14 2 0
VVECTOR 9 14
SWIDTH1 0 -1000
DWIDTH1 0 -16
BITMAP 
1F00
3FC0
61E0
0070
0070
1F70
7FF0
F0F0
E070
E070
E070
F0F0
7FE0
1F80
ENDCHAR
STARTCHAR summation
ENCODING 183
SWIDTH 1000 0
DWIDTH 16 0
BBX 12 16 2 -2
VVECTOR 9 14
SWIDTH1 0 -1000
DWIDTH1 0 -16
BITMAP 
FFC0
FFE0
7010
3800
1C00
0E00
0700
0380
0300
0600
0C00
1800
3000
6010
FFE0
FFC0
ENDCHAR
STARTCHAR product
ENCODING 184
SWIDTH 1000 0
DWIDTH 16 0
BBX 14 14 0 0
VVECTOR 7 14
SWIDTH1 0 -1000
DWIDTH1 0 -16
BITMAP 
FFFC
FFFC
1CE0
1CE0
1CE0
1CE0
1CE0
1CE0
1CE0
1CE0
1CE0
1CE0
1CE0
1CE0
ENDCHAR
STARTCHAR pi
ENCODING 185
SWIDTH 1000 0
DWIDTH 16 0
BBX 14 11 1 0
VVECTOR 9 14
SWIDTH1 0 -1000
DWIDTH1 0 -16
BITMAP 
0004
3FF8
7FF0
9C70
1C70
1C70
1C70
1C70
1860
1040
2080
ENDCHAR
STARTCHAR integral
ENCODING 186
SWIDTH 1000 0
DWIDTH 16 0
BBX 11 16 2 -2
VVECTOR 8 14
SWIDTH1 0 -1000
DWIDTH1 0 -16
BITMAP 
0380
07C0
0E20
0E20
0E00
0E00
0E00
0E00
0E00
0E00
0E00
0E00
8E00
8E00
7C00
3800
ENDCHAR
STARTCHAR ordfeminine
ENCODING 187
SWIDTH 1000 0
DWIDTH 16 0
BBX 12 14 2 0
VVECTOR 9 14
SWIDTH1 0 -1000
DWIDTH1 0 -16
BITMAP 
1FF0
7FF0
F070
E070
E070
E070
E070
F0F0
7FF0
1F70
0000
0000
FFF0
FFF0
ENDCHAR
STARTCHAR ordmasculine
ENCODING 188
SWIDTH 1000 0
DWIDTH 16 0
BBX 12 14 2 0
VVECTOR 9 14
SWIDTH1 0 -1000
DWIDTH1 0 -16
BITMAP 
1F80
7FE0
F0F0
E070
E070
E070
E070
F0F0
7FE0
1F80
0000
0000
7FE0
7FE0
ENDCHAR
STARTCHAR uni03A9
ENCODING 189
SWIDTH 1000 0
DWIDTH 16 0
BBX 12 14 2 0
VVECTOR 9 14
SWIDTH1 0 -1000
DWIDTH1 0 -16
BITMAP 
1F80
7FE0
F0F0
E070
E070
E070
E070
E070
6060
30C0
1980
9990
F9F0
F9F0
ENDCHAR
STARTCHAR ae
ENCODING 190
SWIDTH 1500 0
DWIDTH 24 0
BBX 20 10 2 0
VVECTOR 13 14
SWIDTH1 0 -1000
DWIDTH1 0 -16
BITMAP 
1FCF80
7FDFE0
F0F870
E0F030
E0FFF0
E0FFF0
E0F000
F1F830
7FDFE0
3ECFC0
ENDCHAR
STARTCHAR oslash
ENCODING 191
SWIDTH 1125 0
DWIDTH 18 0
BBX 12 10 3 0
VVECTOR 10 14
SWIDTH1 0 -1000
DWIDTH1 0 -16
BITMAP 
1FB0
7FE0
F1F0
E370
E670
EC70
F870
F0F0
7FE0
DF80
ENDCHAR
STARTCHAR questiondown
ENCODING 192
SWIDTH 1000 0
DWIDTH 16 0
BBX 12 14 2 0
VVECTOR 9 14
SWIDTH1 0 -1000
DWIDTH1 0 -16
BITMAP 
0380
0380
0000
0000
0380
0380
1F80
7F00
F000
E000
E030
F070
7FE0
1FC0
ENDCHAR
STARTCHAR exclamdown
ENCODING 193
SWIDTH 750 0
DWIDTH 12 0
BBX 3 14 4 0
VVECTOR 6 14
SWIDTH1 0 -1000
DWIDTH1 0 -16
BITMAP 
E0
E0
00
00
E0
E0
E0
E0
E0
E0
E0
E0
E0
E0
ENDCHAR
STARTCHAR logicalnot
ENCODING 194
SWIDTH 1000 0
DWIDTH 16 0
BBX 12 6 2 2
VVECTOR 9 14
SWIDTH1 0 -1000
DWIDTH1 0 -16
BITMAP 
FFF0
FFF0
0070
0070
0070
0070
ENDCHAR
STARTCHAR radical
ENCODING 195
SWIDTH 1000 0
DWIDTH 16 0
BBX 16 16 0 -2
VVECTOR 9 14
SWIDTH1 0 -1000
DWIDTH1 0 -16
BITMAP 
007F
0070
0070
00E0
00E0
00E0
00E0
01C0
01C0
01C0
0380
0380
F380
1F00
0F00
0700
ENDCHAR
STARTCHAR florin
ENCODING 196
SWIDTH 1000 0
DWIDTH 16 0
BBX 11 16 2 -2
VVECTOR 8 14
SWIDTH1 0 -1000
DWIDTH1 0 -16
BITMAP 
01E0
03E0
0700
0E00
0E00
0E00
FFE0
FFE0
0E00
0E00
0E00
0E00
0E00
1C00
F800
F000
ENDCHAR
STARTCHAR approxequal
ENCODING 197
SWIDTH 1000 0
DWIDTH 16 0
BBX 12 8 2 3
VVECTOR 9 14
SWIDTH1 0 -1000
DWIDTH1 0 -16
BITMAP 
0030
3FE0
7FC0
C000
0030
3FE0
7FC0
C000
ENDCHAR
STARTCHAR Delta
ENCODING 198
SWIDTH 875 0
DWIDTH 14 0
BBX 12 14 1 0
VVECTOR 8 14
SWIDTH1 0 -1000
DWIDTH1 0 -16
BITMAP 
0600
0600
0F00
0F00
1980
1980
30C0
30C0
6060
6060
C030
C030
FFF0
FFF0
ENDCHAR
STARTCHAR guillemotleft
ENCODING 199
SWIDTH 1000 0
DWIDTH 16 0
BBX 14 9 1 0
VVECTOR 9 14
SWIDTH1 0 -1000
DWIDTH1 0 -16
BITMAP 
0E1C
1C38
3870
70E0
E1C0
70E0
3870
1C38
0E1C
ENDCHAR
STARTCHAR guillemotright
ENCODING 200
SWIDTH 1000 0
DWIDTH 16 0
BBX 14 9 1 0
VVECTOR 9 14
SWIDTH1 0 -1000
DWIDTH1 0 -16
BITMAP 
E1C0
70E0
3870
1C38
0E1C
1C38
3870
70E0
E1C0
ENDCHAR
STARTCHAR ellipsis
ENCODING 201
SWIDTH 1000 0
DWIDTH 16 0
BBX 15 2 0 0
VVECTOR 8 14
SWIDTH1 0 -1000
DWIDTH1 0 -16
BITMAP 
E38E
E38E
ENDCHAR
STARTCHAR uni00A0
ENCODING 202
SWIDTH 500 0
DWIDTH 8 0
BBX 0 0 8 14
VVECTOR 13 14
SWIDTH1 0 -1000
DWIDTH1 0 -16
BITMAP 
ENDCHAR
STARTCHAR Agrave
ENCODING 203
SWIDTH 1000 0
DWIDTH 16 0
BBX 12 14 2 0
VVECTOR 9 14
SWIDTH1 0 -1000
DWIDTH1 0 -16
BITMAP 
1800
1C00
0200
0000
1F80
7FE0
F0F0
E070
E070
FFF0
FFF0
E070
E070
E070
ENDCHAR
STARTCHAR Atilde
ENCODING 204
SWIDTH 1000 0
DWIDTH 16 0
BBX 12 14 2 0
VVECTOR 9 14
SWIDTH1 0 -1000
DWIDTH1 0 -16
BITMAP 
3C10
4F20
83C0
0000
1F80
7FE0
F0F0
E070
E070
FFF0
FFF0
E070
E070
E070
ENDCHAR
STARTCHAR Otilde
ENCODING 205
SWIDTH 1125 0
DWIDTH 18 0
BBX 14 14 2 0
VVECTOR 10 14
SWIDTH1 0 -1000
DWIDTH1 0 -16
BITMAP 
1E08
2790
41E0
0000
1FE0
7FF8
F03C
E01C
E01C
E01C
E01C
F03C
7FF8
1FE0
ENDCHAR
STARTCHAR OE
ENCODING 206
SWIDTH 1250 0
DWIDTH 20 0
BBX 16 14 2 0
VVECTOR 11 14
SWIDTH1 0 -1000
DWIDTH1 0 -16
BITMAP 
1F7F
7FFF
F1E0
E0E0
E0E0
E0E0
E0FF
E0FF
E0E0
E0E0
E0E0
F1E0
7FFF
1F7F
ENDCHAR
STARTCHAR oe
ENCODING 207
SWIDTH 1500 0
DWIDTH 24 0
BBX 20 10 2 0
VVECTOR 13 14
SWIDTH1 0 -1000
DWIDTH1 0 -16
BITMAP 
1F1F80
7FFFE0
F1F0F0
E0E070
E0FFF0
E0FFF0
E0E000
F1F070
7FFFE0
1F1FC0
ENDCHAR
STARTCHAR endash
ENCODING 208
SWIDTH 625 0
DWIDTH 10 0
BBX 6 2 2 6
VVECTOR 6 14
SWIDTH1 0 -1000
DWIDTH1 0 -16
BITMAP 
FC
FC
ENDCHAR
STARTCHAR emdash
ENCODING 209
SWIDTH 1000 0
DWIDTH 16 0
BBX 14 2 0 6
VVECTOR 7 14
SWIDTH1 0 -1000
DWIDTH1 0 -16
BITMAP 
FFFC
FFFC
ENDCHAR
STARTCHAR quotedblleft
ENCODING 210
SWIDTH 1000 0
DWIDTH 16 0
BBX 11 6 2 8
VVECTOR 8 14
SWIDTH1 0 -1000
DWIDTH1 0 -16
BITMAP 
38E0
71C0
E380
E380
E380
E380
ENDCHAR
STARTCHAR quotedblright
ENCODING 211
SWIDTH 1000 0
DWIDTH 16 0
BBX 12 6 2 8
VVECTOR 9 14
SWIDTH1 0 -1000
DWIDTH1 0 -16
BITMAP 
3870
3870
3870
3870
70E0
E1C0
ENDCHAR
STARTCHAR quoteleft
ENCODING 212
SWIDTH 625 0
DWIDTH 10 0
BBX 5 6 3 8
VVECTOR 7 14
SWIDTH1 0 -1000
DWIDTH1 0 -16
BITMAP 
38
70
E0
E0
E0
E0
ENDCHAR
STARTCHAR quoteright
ENCODING 213
SWIDTH 625 0
DWIDTH 10 0
BBX 5 6 2 8
VVECTOR 5 14
SWIDTH1 0 -1000
DWIDTH1 0 -16
BITMAP 
38
38
38
38
70
E0
ENDCHAR
STARTCHAR divide
ENCODING 214
SWIDTH 875 0
DWIDTH 14 0
BBX 10 10 2 2
VVECTOR 8 14
SWIDTH1 0 -1000
DWIDTH1 0 -16
BITMAP 
0C00
0C00
0000
0000
FFC0
FFC0
0000
0000
0C00
0C00
ENDCHAR
STARTCHAR lozenge
ENCODING 215
SWIDTH 1000 0
DWIDTH 16 0
BBX 14 14 0 0
VVECTOR 7 14
SWIDTH1 0 -1000
DWIDTH1 0 -16
BITMAP 
0300
0780
0CC0
1860
3030
6018
C00C
C00C
6018
3030
1860
0CC0
0780
0300
ENDCHAR
STARTCHAR ydieresis
ENCODING 216
SWIDTH 1000 0
DWIDTH 16 0
BBX 12 16 2 -2
VVECTOR 9 14
SWIDTH1 0 -1000
DWIDTH1 0 -16
BITMAP 
30C0
30C0
0000
0000
E070
E070
E070
E070
E070
F0F0
7FF0
1F70
0070
40E0
7FC0
3F80
ENDCHAR
STARTCHAR Aacute
ENCODING 231
SWIDTH 125 0
DWIDTH 2 0
BBX 0 0 2 14
VVECTOR 4 14
SWIDTH1 0 -1000
DWIDTH1 0 -16
BITMAP 
ENDCHAR
STARTCHAR Edieresis
ENCODING 232
SWIDTH 62 0
DWIDTH 1 0
BBX 0 0 1 14
VVECTOR 2 14
SWIDTH1 0 -1000
DWIDTH1 0 -16
BITMAP 
ENDCHAR
STARTCHAR dotlessi
ENCODING 245
SWIDTH 125 0
DWIDTH 2 0
BBX 0 0 2 14
VVECTOR 4 14
SWIDTH1 0 -1000
DWIDTH1 0 -16
BITMAP 
ENDCHAR
STARTCHAR macron
ENCODING 248
SWIDTH 125 0
DWIDTH 2 0
BBX 0 0 2 14
VVECTOR 4 14
SWIDTH1 0 -1000
DWIDTH1 0 -16
BITMAP 
ENDCHAR
STARTCHAR dotaccent
ENCODING 250
SWIDTH 125 0
DWIDTH 2 0
BBX 0 0 2 14
VVECTOR 4 14
SWIDTH1 0 -1000
DWIDTH1 0 -16
BITMAP 
ENDCHAR
STARTCHAR caron
ENCODING 255
SWIDTH 1000 0
DWIDTH 16 0
BBX 14 16 0 -2
VVECTOR 7 14
SWIDTH1 0 -1000
DWIDTH1 0 -16
BITMAP 
FFFC
FFFC
F03C
F03C
CF0C
CF0C
FF0C
FF0C
F03C
F03C
FFFC
FFFC
F0FC
F0FC
FFFC
FFFC
ENDCHAR
STARTCHAR missing
ENCODING -1
SWIDTH 1188 0
DWIDTH 19 0
BBX 15 16 2 -2
VVECTOR 10 14
SWIDTH1 0 -1000
DWIDTH1 0 -16
BITMAP 
FFFE
FFFE
F83E
F79E
E7CE
F3CE
FF9E
FF3E
FE7E
FE7E
FFFE
FFFE
FE7E
FE7E
FFFE
FFFE
ENDCHAR
ENDFONT
